<?xml version="1.0" standalone="yes"?>
<svg xmlns="http://www.w3.org/2000/svg" width="1932" height="512">
<path style="fill:#292929; stroke:none;" d="M1064 112C1063.06 113.989 1062.08 115.964 1061.25 118.005L1059.75 122L1058.25 126L1056.78 130L1055.22 134L1053.75 138L1052.67 141L1051.67 144L1050.33 148L1049.34 151L1048.66 153L1047.34 157L1046.35 160L1045.46 163L1044.82 165L1041.18 176L1040.54 178C1040.23 179 1039.97 180.02 1039.59 180.999C1039.19 182.037 1038.73 183.032 1038.11 183.96L1036.66 185.812L1035.81 186.66L1033.96 188.16C1032.73 189.055 1031.37 189.76 1030.04 190.485L1028.17 191.499L1026.42 192.501L1019 196.866L1014.17 199.499L1010.71 201.514L1007.96 203.134L1005 204.87L1001 207.126C999.735 207.833 998.485 208.562 997.16 209.159L995.671 209.7L994 210L994.432 208.329L994.522 207.841L994.711 206.84L994.91 204.975C994.985 203.987 994.989 202.991 994.996 202C995.01 200.002 994.953 197.995 995.089 196C995.158 194.993 995.285 193.999 995.424 193L995.83 190C995.984 188.389 995.988 186.777 995.999 185.16L996 182L992 182C991.994 184.003 992.024 186.008 991.83 188.005L991.286 192L991.089 194L991.015 196C990.957 198.332 991.07 200.67 990.911 203C990.795 204.678 990.534 206.341 990.266 208C989.997 209.667 989.813 211.403 988.976 212.907L987.682 214.674L986.852 215.482L984.981 216.96L983 218.326L979.089 220.856L976.425 222.562L972.13 225.424L967 228.576L962.714 231.438L958 234.37C956.698 235.21 955.421 236.083 954.17 236.997L950.729 239.55L947.271 241.86L943.87 244.266L940.421 246.566L934.985 250.334C933.021 251.668 931.021 252.951 929.089 254.333C927.298 255.616 925.599 257.016 923.834 258.333L920.166 260.997L916.714 263.586L911.996 266.921C910.305 268.163 908.67 269.476 907.015 270.765L902.424 274.34L898.912 277.151C897.677 278.115 896.423 279.053 895.16 279.98L894.159 280.654L893.671 281.012L892 282L892.514 280.329L892.735 279.841L893.136 278.84C893.724 277.543 894.368 276.273 895.001 274.998C895.997 272.992 896.984 270.978 898.035 269L899.691 266L900.717 264.005L901.102 263.019L901.408 261.153L901.278 260.336L900.958 259.658L900.471 259.161L899.176 258.832L898.455 259.006L896.995 259.913L896.254 260.577L894.676 262.189L893.819 263.094L892.001 265.01L889.33 267.862L888.579 268.679L887.754 269.483L887.36 269.914L886 271L886.514 269.512L886.735 269.117L887.136 268.265C888.077 266.537 889.095 264.85 889.812 263.01L890.445 261.16L890.671 260.159L890.798 259.671L891 258C889.954 258.012 888.887 257.981 887.84 258.054C886.879 258.121 885.934 258.24 884.995 258.46C883.628 258.78 882.299 259.283 881 259.809L878 261.076C876.65 261.683 875.326 262.344 874 263.001L871.001 264.501C869.683 265.165 868.358 265.822 867.089 266.579C865.278 267.659 863.617 268.961 861.87 270.139L860.13 271.269L857.579 272.92L855 274.568L853.271 275.734L850.739 277.536L849.071 278.586L847.656 279.327L846 280L846 284L847.573 283.857L848.874 283.501L850.445 282.786L852.132 281.807L854.729 280.174L857.271 278.537L859.87 276.858L864.13 273.861L866.729 272.175C867.866 271.443 868.997 270.7 870.17 270.025C871.423 269.303 872.714 268.652 874.004 268L877 266.5L881.955 264.009L884.329 262.801L886 262L885.116 263.36L884.812 263.754C884.239 264.558 883.661 265.363 883.126 266.194C882.325 267.438 881.613 268.734 880.856 270.004L878.366 273.996L877.144 275.96L875.996 277.816L875.42 278.675L874.161 280.255C873.435 281.065 872.616 281.78 871.812 282.51L869.96 284.145L867 286.725L863.093 289.985L860.514 292.255C859.257 293.401 858.035 294.586 856.69 295.63C855.323 296.691 853.85 297.596 852.421 298.566L846.985 302.334L842 305.666C839.788 307.133 837.571 308.592 835.289 309.95L832.804 311.365L830.385 312.634L827.829 314L825.961 314.925L824.985 315.365C823.669 315.927 822.343 316.468 821 316.965C819.349 317.574 817.671 318.108 816 318.66C814.672 319.098 813.354 319.558 812 319.91L810 320.367L809 320.542L807 320.721L805.001 320.527L803.018 319.817L802.054 319.257L801.13 318.566L799.475 316.891L798.148 314.985L797.608 313.996L797.148 312.999L796.474 311C796.135 309.696 796.035 308.341 795.968 307C795.886 305.334 795.839 303.668 795.861 302L795.92 300L795.99 297C796.02 295.334 795.979 293.655 796.209 292C796.446 290.293 796.969 288.657 797.421 287L797.668 286C797.99 284.671 798.21 283.317 798.583 282C798.963 280.656 799.39 279.324 799.835 278L800.508 276C800.873 274.991 801.25 273.99 801.666 273C802.812 270.275 804.174 267.641 805.5 265.001C806.157 263.693 806.799 262.375 807.5 261.09C808.632 259.013 809.823 256.96 811.148 255L812.37 253.271L815 249.834C816.327 248.054 817.57 246.215 819.001 244.514C820.117 243.187 821.331 241.938 822.518 240.675L825.093 237.96L829.001 234C831.801 231.194 834.593 228.364 837.576 225.749C839.637 223.942 841.809 222.271 844.004 220.629C845.645 219.401 847.296 218.18 849 217.039C849.983 216.381 850.982 215.748 852 215.146L855 213.464C856.323 212.741 857.651 212.023 859 211.349L862 209.923C863.983 208.999 865.966 208.059 868 207.253C869.642 206.603 871.323 206.062 873 205.509L876 204.559L877 204.285C878.319 203.923 879.666 203.658 880.998 203.35L884.84 202.465L885.841 202.29L886.329 202.187L888 202L888 198C886.325 198.014 884.642 197.979 882.975 198.184L880.998 198.514L877 199.529C875.666 199.87 874.323 200.176 873 200.558L870 201.509L867 202.508L865 203.252C863.648 203.77 862.33 204.38 861 204.951C858.985 205.816 856.96 206.649 855.015 207.665C854.049 208.169 853.102 208.71 852.17 209.274L848.714 211.464L844.986 213.796C843.67 214.669 842.376 215.569 841.089 216.485L838.424 218.428C836.193 220.138 834.118 222.03 831.996 223.87C830.355 225.294 828.649 226.655 827.089 228.17C825.527 229.687 824.14 231.358 822.715 233.001L820.925 234.999L817.325 238.91C816.31 240.064 815.31 241.23 814.344 242.424L811.525 246.039C810.525 247.341 809.521 248.641 808.594 249.996C807.741 251.244 806.977 252.547 806.179 253.83C805.283 255.272 804.349 256.692 803.511 258.17C802.616 259.748 801.809 261.377 801.001 263.001C800.179 264.652 799.367 266.307 798.635 268C797.924 269.645 797.294 271.319 796.674 273L796.001 275C795.447 276.659 794.893 278.318 794.413 280L793.92 282L793.424 284L792.594 287L792.209 289C792.025 290.324 792.016 291.666 792.004 293C791.989 294.667 792.018 296.335 791.911 298C791.804 299.672 791.511 301.327 791.42 303C791.328 304.669 791.418 306.336 791.545 308C791.672 309.67 791.812 311.364 792.188 313L792.751 314.999L793.13 315.996C793.569 316.993 794.026 317.969 794.584 318.906C795.444 320.351 796.458 321.712 797.764 322.786L799.326 323.861L800.184 324.316L801.093 324.728L803.015 325.387L805.001 325.789L806 325.891L807 325.938L808 325.931L810 325.739C812.074 325.4 814.031 324.586 816 323.883L820 322.469C821.005 322.108 822.012 321.747 823 321.34C824.681 320.648 826.314 319.844 827.961 319.075C829.168 318.511 830.39 317.975 831.576 317.366L835.089 315.495C836.731 314.628 838.377 313.775 839.996 312.866C841.294 312.137 842.558 311.348 843.83 310.576L846.421 309C847.877 308.114 849.337 307.24 850.729 306.254L854.166 303.666L857.834 300.999L860.424 298.965L862.165 297.559L863.981 296.258L865.683 295.439L866.484 295.412L866.914 295.322L868 296L870 296L871.044 294.644L871.424 294.261L872.137 293.461L873.541 291.991L876.329 289.036L879.671 285.653C881.582 283.71 883.435 281.708 885.461 279.881L886.644 278.903L888 278C887.532 279.048 887.027 280.092 886.604 281.16C885.864 283.03 885.195 284.919 884.6 286.84L884.365 287.841L884.225 288.329L884 290L886.159 290.296L887.16 290.277L889.025 289.745L891.002 288.645L892 287.952L896 285.035L898.999 282.965C900.004 282.255 900.994 281.529 901.961 280.768C904.089 279.092 906.086 277.256 908.17 275.526C910.309 273.75 912.507 272.049 914.714 270.358L917.286 268.414L920.039 266.485L925.961 262.344L928.714 260.334C929.853 259.47 930.965 258.574 932.13 257.745L935.579 255.434L940.039 252.329L944.985 249L947.83 247.014L950.421 245.144L954.729 242.255L957.271 240.366L959 239.145L961.579 237.463L965.87 234.727L968.421 233.08L971.87 230.869L975.286 228.562L980.004 225.63L984.975 222.389L986.84 221.284L987.841 220.813L988.329 220.552L990 220L990 237L990 242C990.001 243.332 989.981 244.669 990.039 246C990.083 247.006 990.162 248.001 990.286 249L990.83 253C990.957 254.331 990.981 255.664 990.997 257C991.013 258.334 990.998 259.669 991.089 261C991.25 263.348 991.75 265.652 991.911 268C992.024 269.663 991.997 271.334 992 273L992.001 279C992.004 280.333 991.996 281.67 992.089 283L992.289 285C992.489 286.341 992.741 287.669 993.001 289C993.327 290.67 993.671 292.335 994.039 293.995L994.564 295.955C994.794 296.76 995.097 297.544 995.384 298.329L996 300L997.991 299.725L998.87 299.485C999.68 299.108 1000.49 298.715 1001.16 298.106L1001.91 297.427L1003.27 295.811L1003.87 294.906L1004.87 292.985C1005.45 291.698 1005.83 290.346 1006.25 289C1006.65 287.673 1007.05 286.341 1007.41 285L1007.64 284C1007.95 282.68 1008.07 281.324 1008.36 280C1008.71 278.369 1009.24 276.785 1009.62 275.16L1009.89 273.671L1010 272L1006 272L1005.39 273.671C1005.1 274.455 1004.8 275.238 1004.59 276.045L1004.11 278.005L1003.67 280C1003.34 281.349 1002.94 282.671 1002.54 284L1001.63 286.995L1000.89 288.941L1000.01 290.679L999.42 291.483L999.157 291.914L998 293L997.985 291.329C997.959 290.538 997.923 289.74 997.819 288.955L997.522 286.995L996.941 284C996.59 282.015 996.301 280.011 996.145 278C996.016 276.335 996.011 274.669 996.001 273L995.999 269C995.996 267.667 996.002 266.331 995.911 265C995.842 263.993 995.715 262.999 995.576 262L995.17 259C995.043 257.669 995.019 256.336 995.003 255C994.987 253.666 995.002 252.331 994.911 251C994.841 249.993 994.715 248.999 994.576 248L994.17 245C993.948 242.675 994.001 240.332 994 238L994 229L994.001 225C994.008 224.003 993.985 222.999 994.059 222.004L994.318 220.04L995.024 218.184C995.901 216.605 997.364 215.475 998.734 214.349C1000.11 213.22 1001.53 212.144 1003 211.148C1004.39 210.207 1005.84 209.347 1007.29 208.487L1010.04 206.866C1011.35 206.092 1012.66 205.31 1014 204.576L1020 201.424L1025 198.576L1031.84 194.975L1033.33 194.099L1035 193L1035.02 194.671L1034.95 195.159L1034.84 196.16C1034.67 197.115 1034.46 198.062 1034.23 199.005C1033.99 200.009 1033.73 201.008 1033.45 202L1032.54 205L1031.65 208L1030.33 212L1028.66 217L1027.67 220C1027.24 221.33 1026.8 222.654 1026.41 224L1025.42 228L1024.55 231L1023.45 235L1022.58 238L1021.59 242L1020.41 246L1019.42 250L1018.58 253L1018.33 254L1017.9 256L1017.42 258L1016.59 261L1016.16 263C1015.97 264.003 1015.8 265.008 1015.56 266L1014.41 270L1013.42 274L1012.59 277L1012.17 279L1011.64 282C1011.28 283.683 1010.72 285.317 1010.36 287L1009.83 290L1009.41 292L1009.14 293C1008.87 293.998 1008.58 294.987 1008.36 296L1007.69 300L1007.26 302L1006.51 305L1006.14 307C1005.98 308.002 1005.85 309.007 1005.64 310C1005.28 311.684 1004.71 313.313 1004.37 315C1004.17 315.993 1004.06 316.998 1003.91 318L1003.55 320L1003.29 321C1003.01 321.999 1002.68 322.987 1002.45 324L1002.09 326C1001.94 327.002 1001.83 328.007 1001.63 329C1001.29 330.686 1000.71 332.312 1000.37 334C1000.04 335.654 999.97 337.341 999.679 339C999.324 341.023 998.676 342.977 998.321 345C998.03 346.659 997.958 348.346 997.629 350C997.293 351.689 996.716 353.316 996.36 355C996.011 356.653 995.853 358.34 995.54 360L994.463 365L994.158 367C994 368.337 993.891 369.678 993.629 371C993.294 372.688 992.693 374.309 992.375 376L992.1 378C991.982 379.669 991.945 381.346 991.675 383C991.398 384.693 990.856 386.322 990.513 388L990.17 390L989.845 393L989.319 396.975L989.25 398.84L989.431 400.329L990 402L992 402L992.897 400.329L993.421 398.84L993.801 396.975L994.001 394.998L994.205 393L994.594 391C994.938 389.668 995.37 388.354 995.625 387C995.813 386.003 995.899 385.01 995.972 384C996.045 382.999 996.065 381.995 996.208 381L996.594 379C996.938 377.667 997.366 376.353 997.626 375C998.006 373.015 997.994 370.985 998.374 369C998.698 367.31 999.293 365.688 999.629 364C999.957 362.346 1000.03 360.659 1000.32 359L1000.75 357L1001.49 354C1001.91 352.015 1002.09 349.993 1002.46 348L1003.54 343C1003.79 341.674 1003.95 340.335 1004.15 339L1004.51 337L1005.49 333L1005.86 331C1006.02 329.998 1006.15 328.993 1006.36 328C1006.72 326.315 1007.28 324.685 1007.64 323C1007.85 322.007 1007.98 321.002 1008.14 320L1008.51 318L1009.26 315L1009.69 313L1010.36 309C1010.58 307.987 1010.87 306.997 1011.14 306L1011.41 305L1011.83 303L1012.36 300C1012.72 298.317 1013.28 296.683 1013.64 295L1014.36 291L1014.59 290C1014.94 288.666 1015.35 287.349 1015.64 286L1016.36 282L1016.59 281L1017.67 277L1018.5 273L1019.5 269L1020.33 265L1021.14 262L1021.42 261L1021.9 259L1022.58 256L1023.45 253L1024.55 249L1025.42 246L1025.67 245L1026.58 241L1027.45 238L1028.55 234L1029.45 231L1030.55 227L1031.46 224L1032.35 221L1033.34 218L1034.33 215L1035.33 212L1036.85 207L1037.46 205L1038.35 202L1039.6 198L1040.14 196L1040.42 195.001L1040.75 194.005L1041.14 193.019L1041.61 192.058L1042.77 190.299L1044.26 188.894L1045.13 188.326L1047.02 187.309L1049 186.255L1053 184.035C1054.98 182.996 1056.98 181.987 1059 181.025C1060.65 180.239 1062.32 179.514 1064 178.786C1066.24 177.811 1068.49 176.84 1070.71 175.803L1076.44 173L1081.01 170.924L1083 169.986C1085 169.021 1086.97 167.988 1089 167.076C1091.63 165.892 1094.34 164.889 1097 163.789C1099.68 162.682 1102.34 161.504 1105 160.353L1108 159.061C1109.65 158.378 1111.33 157.776 1113 157.139L1116 155.917L1119 154.649C1121.31 153.748 1123.65 152.947 1126 152.167L1129 151.182L1130.98 150.598L1132.84 150.209L1133.84 150.103L1136 150L1135.11 151.317L1134.8 151.661L1134.2 152.395C1133.38 153.29 1132.52 154.143 1131.67 155.001C1130.54 156.132 1129.41 157.263 1128.24 158.348L1123.96 162.184C1122.27 163.749 1120.64 165.377 1119 167C1117.68 168.313 1116.36 169.639 1115 170.91C1114.02 171.823 1113.01 172.7 1112 173.576L1110 175.285L1108 177.089L1104.04 180.907L1098.35 186.329L1091.65 193.001L1087.99 196.478L1084.71 199.616L1080 204.039C1078.69 205.309 1077.43 206.634 1076.17 207.961L1073.58 210.715C1072.08 212.207 1070.53 213.637 1068.99 215.075L1066 217.833L1064 219.561L1061 221.996C1059.69 223.049 1058.36 224.091 1057 225.079C1055.07 226.483 1053.06 227.766 1051 228.981L1049 230.076L1047.02 230.858L1045.14 231.004L1043.54 230.311L1042.88 229.698L1041.74 228.255L1040.61 227.025L1039.52 226.343L1038 226L1038 228.159L1038.06 230.04L1038.32 231.946L1038.6 232.853L1039.6 234.397L1041.15 235.397L1042.06 235.682L1043.02 235.851L1044 235.937L1046 235.941L1048 235.736L1048.99 235.526L1049.96 235.235L1051.83 234.432L1053.58 233.416L1056.17 231.63C1057.7 230.552 1059.22 229.464 1060.72 228.329C1061.9 227.431 1063.02 226.464 1064.17 225.522L1070 220.725C1071.3 219.623 1072.56 218.467 1073.82 217.311L1076.96 214.348L1083.67 207.667L1088.77 202.768L1091.75 199.731C1093.14 198.38 1094.61 197.123 1096.04 195.816C1097.05 194.894 1098.02 193.94 1099 192.985L1102 190L1107 185.001C1108.32 183.684 1109.64 182.361 1111 181.09C1112.95 179.276 1115.01 177.599 1117 175.83C1118.38 174.602 1119.69 173.293 1121 171.996L1125.96 167.093L1130.25 163.039C1131.78 161.608 1133.33 160.202 1134.77 158.674C1135.83 157.539 1136.74 156.277 1137.6 154.985C1138.22 154.058 1138.75 153.043 1139.16 152.005L1139.72 150.045L1139.87 149.16L1139.98 147.671L1140 146L1134.98 146.001C1133.32 146.012 1131.64 145.988 1130 146.259C1128.63 146.486 1127.32 146.92 1126 147.333L1124 147.951L1122 148.556L1120 149.238L1116 150.775L1111 152.624L1106 154.6C1103.38 155.646 1100.75 156.66 1098.17 157.8L1092.91 160.2C1090.62 161.184 1088.28 162.058 1086 163.075L1083.01 164.468L1079.29 166.196L1075.83 167.804L1072.99 169.075L1069 170.925L1063 173.535L1058 175.986L1055.09 177.37L1053.29 178.245C1051.79 179.031 1050.38 179.961 1048.94 180.83L1048.01 181.34L1046.16 182.204L1045.67 182.424L1044 183L1044.5 181.329L1044.68 180.841L1045.65 177.975L1046.54 175L1047.18 173L1049.51 166L1050.49 163L1051.51 160L1052.49 157L1053.51 154L1055.18 149L1057.33 143L1059.04 138L1061.38 132C1062.14 129.999 1062.84 127.98 1063.66 126L1065.38 122L1066.58 119.002L1067.27 117.025L1067.74 115.16L1067.87 114.159L1068 112L1064 112M885 272.333L885.333 272.667L884.667 272.667L885 272.333z"/>
</svg>
